# xmcd
#
# Track frame offsets:
# 150
# 17500
# 33092
# 48577
# 64442
# 82675
# 96602
# 116252
# 131485
# 143780
#
# Disc length: 2124 seconds
#
#
# Revision: 3
# Processed by: cddbd v1.5.1PL0 Copyright (c) Steve Scherf et al.
# Submitted via: FreeRIP 2.70 
#
DISCID=7e084a0a
DTITLE=Rhett Akins - A Thousand Memories
DYEAR=1995
DGENRE=Country
TTITLE0=Heart To Heart
TTITLE1=What They're Talkin' About
TTITLE2=Old Dirt Road
TTITLE3=She Said Yes
TTITLE4=That Ain't My Truck
TTITLE5=Katy Brought My Guitar Back Today
TTITLE6=A Thousand Memories
TTITLE7=I Brake For Brunettes
TTITLE8=Same Ol' Story
TTITLE9=Those Hands
EXTD=
EXTT0=
EXTT1=
EXTT2=
EXTT3=
EXTT4=
EXTT5=
EXTT6=
EXTT7=
EXTT8=
EXTT9=
PLAYORDER=
